<svg width="34" height="24" viewBox="0 0 34 24" fill="none" xmlns="http://www.w3.org/2000/svg">
<path fill-rule="evenodd" clip-rule="evenodd" d="M14.1477 2.61354C15.2447 1.46221 16.7714 0.749244 18.458 0.749244C20.7068 0.749244 22.6558 2.0089 23.7053 3.88579C24.6369 3.46592 25.6459 3.24914 26.6663 3.24966C30.7142 3.24966 34 6.58776 34 10.7068C34 14.8259 30.7142 18.164 26.6663 18.164C26.1715 18.164 25.6893 18.1139 25.217 18.0191C24.2987 19.6693 22.5434 20.7904 20.5444 20.7904C19.7306 20.792 18.9271 20.6059 18.1956 20.2462C17.2649 22.4506 15.0972 24 12.5735 24C9.93739 24 7.70104 22.3247 6.83898 19.9691C6.4553 20.0507 6.06421 20.0918 5.67208 20.0915C2.53619 20.0915 0 17.4966 0 14.3097C0 12.1683 1.14191 10.304 2.83604 9.29627C2.47663 8.4615 2.29163 7.56103 2.29257 6.65099C2.29257 2.97279 5.25355 0 8.90167 0C11.0381 0 12.9496 1.02662 14.149 2.62009" fill="#444444"/>
</svg>
